<svg width="60" height="60" viewBox="0 0 60 60" fill="none" xmlns="http://www.w3.org/2000/svg">
<path d="M23.8766 49.8839C24.3624 49.8839 24.7562 49.49 24.7562 49.0042C24.7562 48.5185 24.3624 48.1246 23.8766 48.1246C23.3908 48.1246 22.997 48.5185 22.997 49.0042C22.997 49.49 23.3908 49.8839 23.8766 49.8839Z" fill="black"/>
<path d="M27.9591 49.8839C28.4449 49.8839 28.8387 49.49 28.8387 49.0042C28.8387 48.5185 28.4449 48.1246 27.9591 48.1246C27.4733 48.1246 27.0795 48.5185 27.0795 49.0042C27.0795 49.49 27.4733 49.8839 27.9591 49.8839Z" fill="black"/>
<path d="M32.042 49.8839C32.5278 49.8839 32.9217 49.49 32.9217 49.0042C32.9217 48.5185 32.5278 48.1246 32.042 48.1246C31.5563 48.1246 31.1624 48.5185 31.1624 49.0042C31.1624 49.49 31.5563 49.8839 32.042 49.8839Z" fill="black"/>
<path d="M27.9591 53.4575C28.4449 53.4575 28.8387 53.0636 28.8387 52.5778C28.8387 52.092 28.4449 51.6982 27.9591 51.6982C27.4733 51.6982 27.0795 52.092 27.0795 52.5778C27.0795 53.0636 27.4733 53.4575 27.9591 53.4575Z" fill="black"/>
<path d="M32.042 53.4575C32.5278 53.4575 32.9217 53.0636 32.9217 52.5778C32.9217 52.092 32.5278 51.6982 32.042 51.6982C31.5563 51.6982 31.1624 52.092 31.1624 52.5778C31.1624 53.0636 31.5563 53.4575 32.042 53.4575Z" fill="black"/>
<path d="M36.1249 49.8839C36.6106 49.8839 37.0045 49.49 37.0045 49.0042C37.0045 48.5185 36.6106 48.1246 36.1249 48.1246C35.6391 48.1246 35.2452 48.5185 35.2452 49.0042C35.2452 49.49 35.6391 49.8839 36.1249 49.8839Z" fill="black"/>
<path d="M10.9965 24.7557C11.4823 24.7557 11.8761 24.3618 11.8761 23.876C11.8761 23.3903 11.4823 22.9964 10.9965 22.9964C10.5107 22.9964 10.1169 23.3903 10.1169 23.876C10.1169 24.3618 10.5107 24.7557 10.9965 24.7557Z" fill="black"/>
<path d="M10.9965 28.8384C11.4823 28.8384 11.8761 28.4446 11.8761 27.9588C11.8761 27.473 11.4823 27.0792 10.9965 27.0792C10.5107 27.0792 10.1169 27.473 10.1169 27.9588C10.1169 28.4446 10.5107 28.8384 10.9965 28.8384Z" fill="black"/>
<path d="M10.9965 32.9212C11.4823 32.9212 11.8761 32.5274 11.8761 32.0416C11.8761 31.5558 11.4823 31.162 10.9965 31.162C10.5107 31.162 10.1169 31.5558 10.1169 32.0416C10.1169 32.5274 10.5107 32.9212 10.9965 32.9212Z" fill="black"/>
<path d="M7.42309 28.8384C7.90888 28.8384 8.3027 28.4446 8.3027 27.9588C8.3027 27.473 7.90888 27.0792 7.42309 27.0792C6.93729 27.0792 6.54348 27.473 6.54348 27.9588C6.54348 28.4446 6.93729 28.8384 7.42309 28.8384Z" fill="black"/>
<path d="M7.42309 32.9212C7.90888 32.9212 8.3027 32.5274 8.3027 32.0416C8.3027 31.5558 7.90888 31.162 7.42309 31.162C6.93729 31.162 6.54348 31.5558 6.54348 32.0416C6.54348 32.5274 6.93729 32.9212 7.42309 32.9212Z" fill="black"/>
<path d="M10.9965 37.0041C11.4823 37.0041 11.8761 36.6103 11.8761 36.1245C11.8761 35.6387 11.4823 35.2449 10.9965 35.2449C10.5107 35.2449 10.1169 35.6387 10.1169 36.1245C10.1169 36.6103 10.5107 37.0041 10.9965 37.0041Z" fill="black"/>
<path d="M37.0025 37.9594V22.0406C37.0025 20.8081 35.9997 19.8054 34.7672 19.8054H25.2327C24.0002 19.8054 22.9975 20.8082 22.9975 22.0406V25.8129C22.9975 26.2983 23.391 26.6918 23.8764 26.6918C24.3618 26.6918 24.7553 26.2983 24.7553 25.8129V22.0406C24.7553 21.7773 24.9695 21.5632 25.2327 21.5632H34.7672C35.0305 21.5632 35.2446 21.7774 35.2446 22.0406V37.9594C35.2446 38.2227 35.0304 38.4368 34.7672 38.4368H25.2327C24.9694 38.4368 24.7553 38.2226 24.7553 37.9594V29.9146C24.7553 29.4292 24.3618 29.0357 23.8764 29.0357C23.391 29.0357 22.9975 29.4292 22.9975 29.9146V37.9594C22.9975 39.192 24.0003 40.1946 25.2327 40.1946H34.7672C35.9997 40.1946 37.0025 39.192 37.0025 37.9594Z" fill="black"/>
<path d="M49.1822 19.1822H47.5147C47.0293 19.1822 46.6358 19.5757 46.6358 20.0611C46.6358 20.5465 47.0293 20.94 47.5147 20.94H49.1822C54.1779 20.94 58.2422 25.0043 58.2422 30C58.2422 34.9957 54.1779 39.06 49.1822 39.06H40.8177V20.94H43.4131C43.8984 20.94 44.292 20.5465 44.292 20.0611C44.292 19.5757 43.8984 19.1822 43.4131 19.1822H40.8177V10.8178C40.8178 4.85285 35.965 0 30 0C24.035 0 19.1822 4.85285 19.1822 10.8178V19.1823H10.8178C4.85285 19.1822 0 24.035 0 30C0 35.965 4.85285 40.8178 10.8178 40.8178H19.1822V49.1823C19.1822 55.1471 24.035 60 30 60C35.965 60 40.8178 55.1472 40.8178 49.1822V47.7738C40.8178 47.2884 40.4243 46.8949 39.9389 46.8949C39.4535 46.8949 39.06 47.2884 39.06 47.7738V49.1822C39.06 54.1779 34.9957 58.2422 30 58.2422C25.0043 58.2422 20.94 54.1779 20.94 49.1822C20.94 48.141 20.94 12.8941 20.94 10.8177C20.94 5.82211 25.0043 1.75781 30 1.75781C34.9957 1.75781 39.06 5.82211 39.06 10.8178V43.6723C39.06 44.1577 39.4535 44.5512 39.9389 44.5512C40.4243 44.5512 40.8178 44.1577 40.8178 43.6723V40.8177H49.1823C55.1471 40.8178 60 35.965 60 30C60 24.035 55.1472 19.1822 49.1822 19.1822ZM10.8178 39.06C5.82211 39.06 1.75781 34.9957 1.75781 30C1.75781 25.0043 5.82211 20.94 10.8178 20.94H19.1822V39.0599L10.8178 39.06Z" fill="black"/>
<path d="M23.8766 11.8758C24.3624 11.8758 24.7562 11.482 24.7562 10.9962C24.7562 10.5104 24.3624 10.1166 23.8766 10.1166C23.3908 10.1166 22.997 10.5104 22.997 10.9962C22.997 11.482 23.3908 11.8758 23.8766 11.8758Z" fill="black"/>
<path d="M27.9591 11.8758C28.4449 11.8758 28.8387 11.482 28.8387 10.9962C28.8387 10.5104 28.4449 10.1166 27.9591 10.1166C27.4733 10.1166 27.0795 10.5104 27.0795 10.9962C27.0795 11.482 27.4733 11.8758 27.9591 11.8758Z" fill="black"/>
<path d="M32.042 11.8758C32.5278 11.8758 32.9217 11.482 32.9217 10.9962C32.9217 10.5104 32.5278 10.1166 32.042 10.1166C31.5563 10.1166 31.1624 10.5104 31.1624 10.9962C31.1624 11.482 31.5563 11.8758 32.042 11.8758Z" fill="black"/>
<path d="M27.9591 8.30228C28.4449 8.30228 28.8387 7.90847 28.8387 7.42267C28.8387 6.93688 28.4449 6.54306 27.9591 6.54306C27.4733 6.54306 27.0795 6.93688 27.0795 7.42267C27.0795 7.90847 27.4733 8.30228 27.9591 8.30228Z" fill="black"/>
<path d="M32.042 8.30228C32.5278 8.30228 32.9217 7.90847 32.9217 7.42267C32.9217 6.93688 32.5278 6.54306 32.042 6.54306C31.5563 6.54306 31.1624 6.93688 31.1624 7.42267C31.1624 7.90847 31.5563 8.30228 32.042 8.30228Z" fill="black"/>
<path d="M36.1249 11.8758C36.6106 11.8758 37.0045 11.482 37.0045 10.9962C37.0045 10.5104 36.6106 10.1166 36.1249 10.1166C35.6391 10.1166 35.2452 10.5104 35.2452 10.9962C35.2452 11.482 35.6391 11.8758 36.1249 11.8758Z" fill="black"/>
<path d="M23.8766 15.4496C24.3624 15.4496 24.7562 15.0557 24.7562 14.5699C24.7562 14.0841 24.3624 13.6903 23.8766 13.6903C23.3908 13.6903 22.997 14.0841 22.997 14.5699C22.997 15.0557 23.3908 15.4496 23.8766 15.4496Z" fill="black"/>
<path d="M27.9591 15.4496C28.4449 15.4496 28.8387 15.0557 28.8387 14.5699C28.8387 14.0841 28.4449 13.6903 27.9591 13.6903C27.4733 13.6903 27.0795 14.0841 27.0795 14.5699C27.0795 15.0557 27.4733 15.4496 27.9591 15.4496Z" fill="black"/>
<path d="M32.042 15.4496C32.5278 15.4496 32.9217 15.0557 32.9217 14.5699C32.9217 14.0841 32.5278 13.6903 32.042 13.6903C31.5563 13.6903 31.1624 14.0841 31.1624 14.5699C31.1624 15.0557 31.5563 15.4496 32.042 15.4496Z" fill="black"/>
<path d="M36.1249 15.4496C36.6106 15.4496 37.0045 15.0557 37.0045 14.5699C37.0045 14.0841 36.6106 13.6903 36.1249 13.6903C35.6391 13.6903 35.2452 14.0841 35.2452 14.5699C35.2452 15.0557 35.6391 15.4496 36.1249 15.4496Z" fill="black"/>
<path d="M23.8766 46.3102C24.3624 46.3102 24.7562 45.9164 24.7562 45.4306C24.7562 44.9448 24.3624 44.551 23.8766 44.551C23.3908 44.551 22.997 44.9448 22.997 45.4306C22.997 45.9164 23.3908 46.3102 23.8766 46.3102Z" fill="black"/>
<path d="M27.9591 46.3102C28.4449 46.3102 28.8387 45.9164 28.8387 45.4306C28.8387 44.9448 28.4449 44.551 27.9591 44.551C27.4733 44.551 27.0795 44.9448 27.0795 45.4306C27.0795 45.9164 27.4733 46.3102 27.9591 46.3102Z" fill="black"/>
<path d="M32.042 46.3102C32.5278 46.3102 32.9217 45.9164 32.9217 45.4306C32.9217 44.9448 32.5278 44.551 32.042 44.551C31.5563 44.551 31.1624 44.9448 31.1624 45.4306C31.1624 45.9164 31.5563 46.3102 32.042 46.3102Z" fill="black"/>
<path d="M36.1249 46.3102C36.6106 46.3102 37.0045 45.9164 37.0045 45.4306C37.0045 44.9448 36.6106 44.551 36.1249 44.551C35.6391 44.551 35.2452 44.9448 35.2452 45.4306C35.2452 45.9164 35.6391 46.3102 36.1249 46.3102Z" fill="black"/>
<path d="M49.0046 24.7557C49.4904 24.7557 49.8843 24.3618 49.8843 23.876C49.8843 23.3903 49.4904 22.9964 49.0046 22.9964C48.5189 22.9964 48.125 23.3903 48.125 23.876C48.125 24.3618 48.5189 24.7557 49.0046 24.7557Z" fill="black"/>
<path d="M49.0046 28.8384C49.4904 28.8384 49.8843 28.4446 49.8843 27.9588C49.8843 27.473 49.4904 27.0792 49.0046 27.0792C48.5189 27.0792 48.125 27.473 48.125 27.9588C48.125 28.4446 48.5189 28.8384 49.0046 28.8384Z" fill="black"/>
<path d="M49.0046 32.9212C49.4904 32.9212 49.8843 32.5274 49.8843 32.0416C49.8843 31.5558 49.4904 31.162 49.0046 31.162C48.5189 31.162 48.125 31.5558 48.125 32.0416C48.125 32.5274 48.5189 32.9212 49.0046 32.9212Z" fill="black"/>
<path d="M52.5781 28.8384C53.0639 28.8384 53.4577 28.4446 53.4577 27.9588C53.4577 27.473 53.0639 27.0792 52.5781 27.0792C52.0923 27.0792 51.6984 27.473 51.6984 27.9588C51.6984 28.4446 52.0923 28.8384 52.5781 28.8384Z" fill="black"/>
<path d="M52.5781 32.9212C53.0639 32.9212 53.4577 32.5274 53.4577 32.0416C53.4577 31.5558 53.0639 31.162 52.5781 31.162C52.0923 31.162 51.6984 31.5558 51.6984 32.0416C51.6984 32.5274 52.0923 32.9212 52.5781 32.9212Z" fill="black"/>
<path d="M49.0046 37.0041C49.4904 37.0041 49.8843 36.6103 49.8843 36.1245C49.8843 35.6387 49.4904 35.2449 49.0046 35.2449C48.5189 35.2449 48.125 35.6387 48.125 36.1245C48.125 36.6103 48.5189 37.0041 49.0046 37.0041Z" fill="black"/>
<path d="M45.4309 24.7557C45.9167 24.7557 46.3105 24.3618 46.3105 23.876C46.3105 23.3903 45.9167 22.9964 45.4309 22.9964C44.9451 22.9964 44.5513 23.3903 44.5513 23.876C44.5513 24.3618 44.9451 24.7557 45.4309 24.7557Z" fill="black"/>
<path d="M45.4309 28.8384C45.9167 28.8384 46.3105 28.4446 46.3105 27.9588C46.3105 27.473 45.9167 27.0792 45.4309 27.0792C44.9451 27.0792 44.5513 27.473 44.5513 27.9588C44.5513 28.4446 44.9451 28.8384 45.4309 28.8384Z" fill="black"/>
<path d="M45.4309 32.9212C45.9167 32.9212 46.3105 32.5274 46.3105 32.0416C46.3105 31.5558 45.9167 31.162 45.4309 31.162C44.9451 31.162 44.5513 31.5558 44.5513 32.0416C44.5513 32.5274 44.9451 32.9212 45.4309 32.9212Z" fill="black"/>
<path d="M45.4309 37.0041C45.9167 37.0041 46.3105 36.6103 46.3105 36.1245C46.3105 35.6387 45.9167 35.2449 45.4309 35.2449C44.9451 35.2449 44.5513 35.6387 44.5513 36.1245C44.5513 36.6103 44.9451 37.0041 45.4309 37.0041Z" fill="black"/>
<path d="M14.5701 24.7557C15.0559 24.7557 15.4498 24.3618 15.4498 23.876C15.4498 23.3903 15.0559 22.9964 14.5701 22.9964C14.0844 22.9964 13.6905 23.3903 13.6905 23.876C13.6905 24.3618 14.0844 24.7557 14.5701 24.7557Z" fill="black"/>
<path d="M14.5701 28.8384C15.0559 28.8384 15.4498 28.4446 15.4498 27.9588C15.4498 27.473 15.0559 27.0792 14.5701 27.0792C14.0844 27.0792 13.6905 27.473 13.6905 27.9588C13.6905 28.4446 14.0844 28.8384 14.5701 28.8384Z" fill="black"/>
<path d="M14.5701 32.9212C15.0559 32.9212 15.4498 32.5274 15.4498 32.0416C15.4498 31.5558 15.0559 31.162 14.5701 31.162C14.0844 31.162 13.6905 31.5558 13.6905 32.0416C13.6905 32.5274 14.0844 32.9212 14.5701 32.9212Z" fill="black"/>
<path d="M14.5701 37.0041C15.0559 37.0041 15.4498 36.6103 15.4498 36.1245C15.4498 35.6387 15.0559 35.2449 14.5701 35.2449C14.0844 35.2449 13.6905 35.6387 13.6905 36.1245C13.6905 36.6103 14.0844 37.0041 14.5701 37.0041Z" fill="black"/>
</svg>
