<svg width="24" height="24" viewBox="0 0 24 24" fill="none" xmlns="http://www.w3.org/2000/svg">
<path d="M3.08049 0H20.9195C22.6136 0 23.9998 1.25427 23.9998 3.08024V20.9198C23.9998 22.7457 22.6136 24 20.9195 24H3.08049C1.38586 24 0 22.7457 0 20.9198V3.08024C0 1.25427 1.38586 0 3.08049 0ZM17.483 2.6665C16.8886 2.6665 16.4029 3.15244 16.4029 3.74705V6.33322C16.4029 6.92758 16.8886 7.41377 17.483 7.41377H20.1955C20.7899 7.41377 21.2761 6.92758 21.2761 6.33322V3.74705C21.2761 3.15244 20.7899 2.6665 20.1955 2.6665H17.483ZM21.2874 10.1495H19.1751C19.375 10.802 19.4831 11.4932 19.4831 12.2083C19.4831 16.2003 16.1427 19.4363 12.0228 19.4363C7.90316 19.4363 4.56319 16.2003 4.56319 12.2083C4.56319 11.4927 4.67112 10.8018 4.87122 10.1495H2.667V20.2875C2.667 20.8121 3.09626 21.2416 3.62113 21.2416H20.3338C20.8586 21.2416 21.2879 20.8123 21.2879 20.2875V10.1495H21.2874ZM12.0225 7.2775C9.36073 7.2775 7.20259 9.36837 7.20259 11.9479C7.20259 14.5274 9.36073 16.6183 12.0225 16.6183C14.6846 16.6183 16.843 14.5274 16.843 11.9479C16.843 9.36837 14.6849 7.2775 12.0225 7.2775Z" fill="white"/>
</svg>
