<svg width="60" height="65" viewBox="0 0 60 65" fill="none" xmlns="http://www.w3.org/2000/svg">
<path d="M59.2245 14.9814L56.6974 13.4997C56.2489 13.2367 55.6755 13.3928 55.4166 13.8482C55.1576 14.3036 55.3113 14.8859 55.7597 15.1488L58.0051 16.4652L56.9758 18.2756C47.3204 12.615 68.7343 25.169 32.3462 3.83603L33.3755 2.02559L51.9704 12.9272C52.4188 13.1901 52.9923 13.034 53.2512 12.5787C53.5101 12.1233 53.3565 11.541 52.908 11.2781L34.0312 0.211349C33.2896 -0.223455 32.3424 0.0339996 31.9141 0.787449L30.5594 3.17018C30.131 3.92337 30.3846 4.88502 31.1266 5.32008L32.7156 6.25164L27.5483 15.34L26.5003 14.7256C26.0517 14.4625 25.4784 14.6187 25.2195 15.074L22.0887 20.5803L19.7481 19.2081C19.0079 18.7743 18.0581 19.0327 17.631 19.7842L14.247 25.7361C13.7247 26.6547 14.0341 27.8273 14.9387 28.3577L16.9847 29.5572L15.91 31.4473L15.7942 31.3794C14.6889 30.7315 13.2701 31.1174 12.6317 32.2399L11.319 34.5486C11.2199 34.7233 11.1804 34.9166 11.1939 35.1045C10.9646 35.2874 10.7695 35.5151 10.6193 35.7793L9.98446 36.8958C9.72667 37.3491 9.63503 37.8544 9.69016 38.3383C9.24984 38.5318 8.86478 38.865 8.60699 39.3184L7.97214 40.435C7.72073 40.8772 7.61946 41.3786 7.67635 41.8768C7.22303 42.0757 6.84597 42.4156 6.59468 42.8577L5.95983 43.9743C5.80781 44.2418 5.71354 44.5271 5.67316 44.8157C5.50076 44.9009 5.35461 45.0375 5.25985 45.2056L3.94752 47.5135C3.30929 48.6361 3.68947 50.0766 4.7949 50.7249L4.93029 50.8042L0.543108 58.5205C0.208681 59.1086 0.0294032 59.7786 0.0247775 60.4576L2.36111e-05 64.04C-0.00497717 64.7779 0.785396 65.2415 1.41212 64.8679L4.45497 63.0549C5.03193 62.7111 5.51363 62.2185 5.84794 61.6304L7.41618 58.872C7.6751 58.4166 7.52145 57.8343 7.073 57.5714C6.85484 57.4436 6.77983 57.1592 6.90585 56.9377C7.03187 56.7163 7.31179 56.6401 7.52995 56.7679C7.97827 57.0306 8.55186 56.8748 8.81077 56.4195L10.2352 53.9141L10.3706 53.9934C11.4832 54.6457 12.8989 54.2484 13.5331 53.133L14.8458 50.8243C14.9451 50.6493 14.9849 50.4557 14.9714 50.2681C15.2005 50.0853 15.3954 49.8578 15.5456 49.5937L16.1804 48.4772C16.438 48.0242 16.5296 47.5195 16.4748 47.0361C16.9287 46.8371 17.3062 46.4972 17.5579 46.0545L18.1927 44.9379C18.4505 44.4845 18.5422 43.9792 18.487 43.4953C18.9274 43.3018 19.3125 42.9687 19.5702 42.5154L20.2051 41.3987C20.3571 41.1313 20.4513 40.8458 20.4917 40.5573C20.6641 40.4721 20.8103 40.3355 20.9052 40.1674L22.2175 37.8595C22.8557 36.7368 22.4755 35.2963 21.3701 34.6481L21.2543 34.5802L22.329 32.69L25.0907 34.3092C25.9932 34.8383 27.1514 34.5233 27.6725 33.6068L28.0069 33.0185C28.1017 32.8519 28.3117 32.7944 28.476 32.8909L33.9252 36.0856C34.3735 36.3485 34.947 36.1925 35.206 35.7371C35.4649 35.2817 35.3113 34.6994 34.8628 34.4365L29.4136 31.2418C28.3541 30.6206 26.9945 30.9906 26.3828 32.0665C26.0311 32.685 26.047 32.6713 26.0283 32.6602C15.3677 26.4102 15.8583 26.7102 15.871 26.6881L19.0924 21.0223C43.2968 35.2125 21.1186 22.2103 46.3336 36.9929L44.8184 39.6578C44.6733 39.9131 44.3523 40 44.1015 39.8528L38.6523 36.6581C38.2039 36.3951 37.6304 36.5512 37.3715 37.0066C37.1126 37.462 37.2662 38.0443 37.7147 38.3072L43.1639 41.5019C44.3133 42.1758 45.7797 41.776 46.4425 40.6098L48.1204 37.6589C48.5199 36.9565 48.3635 35.9839 47.5012 35.4785L48.6129 33.5232C48.706 33.3596 48.7659 33.1827 48.7919 33.0012C48.9338 32.8854 49.0573 32.7417 49.1536 32.5722C50.3009 30.5545 46.2625 37.6571 54.6157 22.9655C54.7122 22.7958 54.773 22.615 54.8007 22.432C54.9405 22.3202 55.0621 22.1803 55.1564 22.0145L56.2681 20.0594C57.1194 20.5586 58.0345 20.2218 58.4371 19.5138L59.7919 17.1309C60.2201 16.3781 59.9665 15.4163 59.2245 14.9814ZM7.58383 44.9264L8.21868 43.8099C8.34033 43.596 8.60987 43.5236 8.81953 43.6464L14.3953 46.9153C14.6053 47.0385 14.6776 47.3122 14.5563 47.5255L13.9214 48.642C13.8003 48.855 13.5316 48.9291 13.3206 48.8055L7.74473 45.5365C7.53482 45.4134 7.46269 45.1395 7.58383 44.9264ZM7.55708 54.8161C6.66631 54.7176 5.75805 55.1482 5.28185 55.9858C4.80552 56.8235 4.89216 57.837 5.42187 58.5715L4.22393 60.6785C4.05166 60.9817 3.80337 61.2354 3.50607 61.4127L1.88682 62.3774L1.89995 60.4709C1.90232 60.1209 1.99471 59.7758 2.16711 59.4726L6.5543 51.7563C7.27366 52.1781 7.89176 52.5405 8.61112 52.9622L7.55708 54.8161ZM11.9091 52.1812C11.7879 52.3945 11.5186 52.4678 11.3083 52.3447C4.96305 48.6247 10.4445 51.8383 5.73242 49.0758C5.52239 48.9526 5.45025 48.6789 5.57139 48.4656L6.42615 46.9623L12.7636 50.6779L11.9091 52.1812ZM16.5686 43.986L15.9338 45.1025C15.8126 45.3158 15.5431 45.3891 15.3329 45.266L9.75717 41.997C9.54689 41.8738 9.47463 41.6007 9.59615 41.3869L10.231 40.2702C10.3525 40.0565 10.6221 39.984 10.8318 40.1067L16.4076 43.3757C16.6176 43.499 16.6899 43.7727 16.5686 43.986ZM18.5809 40.4467L17.9461 41.5634C17.8248 41.7766 17.5554 41.8499 17.3452 41.7269L11.7695 38.4579C11.5593 38.3346 11.4869 38.0617 11.6085 37.8478L12.2433 36.7313C12.3646 36.518 12.6332 36.4442 12.8442 36.5677C14.6349 37.6176 16.6693 38.8103 18.4213 39.8373C18.6303 39.961 18.7019 40.2339 18.5809 40.4467ZM20.5932 36.9075L19.7385 38.4108C19.1269 38.0522 13.972 35.03 13.401 34.6952L14.2558 33.1919C14.377 32.9786 14.6464 32.9054 14.8566 33.0284C15.29 33.2825 17.5095 34.5838 20.4325 36.2973C20.6424 36.4205 20.7145 36.6942 20.5932 36.9075ZM19.6301 33.6282L17.5339 32.3993L18.6086 30.5092L20.7048 31.738L19.6301 33.6282ZM51.7359 24.2222L48.2181 22.1599C47.7696 21.8969 47.1961 22.053 46.9372 22.5084C46.6783 22.9638 46.832 23.5461 47.2804 23.809L50.7982 25.8713L49.7229 27.7626L46.2051 25.7002C45.7567 25.4371 45.1832 25.5931 44.9243 26.0486C44.6654 26.504 44.819 27.0863 45.2675 27.3492L48.7853 29.4117L47.71 31.3029L40.6745 27.1781C42.0492 24.7602 44.5429 20.3745 45.7757 18.2062L52.8111 22.3309L51.7359 24.2222ZM45.9843 14.0306C45.417 15.0285 45.6499 14.6188 45.0892 15.6051L38.0536 11.4803L38.9487 9.9059L45.9843 14.0306ZM30.182 25.325L31.0771 23.7506C32.9703 24.8605 36.546 26.9568 38.1127 27.8753C37.9757 28.1164 37.3235 29.2634 37.2176 29.4496C34.2675 27.7202 31.1841 25.9126 30.182 25.325ZM34.3396 7.20364L37.3247 8.95378L36.2132 10.9089C36.12 11.0727 36.06 11.2495 36.034 11.4313C35.8921 11.5471 35.7686 11.6907 35.6723 11.86L34.829 13.3435C34.57 13.7988 34.7237 14.3812 35.1721 14.6441C35.6205 14.907 36.1939 14.751 36.453 14.2956L37.1159 13.1296C42.3681 16.2087 42.2615 16.1461 44.1515 17.2543L43.0763 19.1455L39.5584 17.0832C39.11 16.8201 38.5365 16.9763 38.2776 17.4316C38.0187 17.887 38.1724 18.4693 38.6208 18.7322L42.1386 20.7946L41.0633 22.6859L37.5455 20.6236C37.0971 20.3605 36.5236 20.5167 36.2647 20.972C36.0058 21.4274 36.1594 22.0097 36.6079 22.2726L40.1257 24.3349C39.3653 25.6724 39.6518 25.1684 39.0504 26.2262L32.0149 22.1015L34.2652 18.1435C34.5242 17.6881 34.3705 17.1058 33.9221 16.8428C33.4736 16.5798 32.9002 16.7358 32.6412 17.1913L30.2104 21.4666C30.115 21.6343 30.0527 21.8151 30.0245 22.0008C29.8851 22.1124 29.7638 22.2522 29.6698 22.4176L28.5581 24.3729L27.4331 23.7133L30.5638 18.2071C30.8226 17.7519 30.6691 17.1694 30.2206 16.9064L29.1726 16.292L34.3396 7.20364ZM26.3745 16.8506L28.4707 18.0795L25.8088 22.7611L23.7127 21.5323L26.3745 16.8506ZM38.8416 30.4018C38.9784 30.1612 39.6306 29.0141 39.7367 28.8273C40.8427 29.4758 45.6689 32.3053 46.7722 32.9521L45.8771 34.5265C39.952 31.0529 42.187 32.3631 38.8416 30.4018ZM53.7488 20.6819L46.7132 16.5572C46.8657 16.2888 47.4978 15.1771 47.6083 14.9828L54.6439 19.1075L53.7488 20.6819Z" fill="black"/>
</svg>
