<svg width="60" height="60" viewBox="0 0 60 60" fill="none" xmlns="http://www.w3.org/2000/svg">
<path d="M15.6173 24.0654H15.8716C16.7181 24.0654 17.4067 23.3769 17.4067 22.5305V18.0033C17.4067 16.6111 16.3181 15.3373 14.6576 15.3373V13.674C14.6576 12.9833 14.1527 12.4084 13.4926 12.2986L12.9534 8.08101C12.8888 7.5737 12.5314 7.16507 12.0649 7.01636L11.6647 2.56194C11.5839 1.66077 10.8404 0.981201 9.93551 0.981201H8.64012C7.73531 0.981201 6.99199 1.66077 6.91102 2.56194L6.51082 7.01636C6.04453 7.16507 5.68734 7.57347 5.62219 8.08077L5.08301 12.2986C4.42301 12.4084 3.91816 12.9832 3.91816 13.6739V15.3371C2.26629 15.3371 1.16906 16.6048 1.16906 18.0032V22.5303C1.16906 23.3767 1.85766 24.0653 2.70398 24.0653H2.9584C1.15523 25.5208 0 27.7484 0 30.2407V56.4048C0 57.8463 1.17281 59.019 2.61434 59.019H15.9615C17.403 59.019 18.5759 57.8463 18.5759 56.4048V30.2407C18.5759 27.7484 17.4205 25.5208 15.6173 24.0654ZM7.31344 8.71358H11.2622L11.718 12.2796H6.8577L7.31344 8.71358ZM8.66004 2.73901H9.9157L10.2946 6.95589H8.28117L8.66004 2.73901ZM5.67609 14.0374H12.8999V15.3371H5.67609V14.0374ZM2.92699 18.0033C2.92699 17.5025 3.33457 17.0951 3.83531 17.0951H14.7407C15.2414 17.0951 15.649 17.5025 15.649 18.0033V22.3076H13.5955V19.9544C13.5955 19.4691 13.2021 19.0755 12.7166 19.0755C12.2311 19.0755 11.8377 19.4691 11.8377 19.9544V22.3076H10.1668V19.9544C10.1668 19.4691 9.77344 19.0755 9.28793 19.0755C8.80242 19.0755 8.40902 19.4691 8.40902 19.9544V22.3076H6.73816V19.9544C6.73816 19.4691 6.34477 19.0755 5.85926 19.0755C5.37375 19.0755 4.98035 19.4691 4.98035 19.9544V22.3076H2.92699V18.0033ZM15.9615 57.2612H2.61434C2.14207 57.2612 1.75781 56.8771 1.75781 56.4048V52.4821H3.79453C4.28004 52.4821 4.67344 52.0885 4.67344 51.6031C4.67344 51.1178 4.28004 50.7242 3.79453 50.7242H1.75781V32.4744H16.818V50.7242H7.89609C7.41059 50.7242 7.01719 51.1178 7.01719 51.6031C7.01719 52.0885 7.41059 52.4821 7.89609 52.4821H16.818V56.4048C16.818 56.8771 16.4338 57.2612 15.9615 57.2612ZM16.818 30.7166H1.75781V30.2407C1.75781 26.8356 4.52813 24.0654 7.93313 24.0654H10.6426C14.0477 24.0654 16.8179 26.8357 16.8179 30.2407V30.7166H16.818Z" fill="black"/>
<path d="M36.3294 24.0654H36.5838C37.4301 24.0654 38.1187 23.3769 38.1187 22.5305V18.0033C38.1187 16.6111 37.0302 15.3373 35.3696 15.3373V13.674C35.3696 12.9832 34.8646 12.4083 34.2046 12.2986L33.6655 8.08101C33.6008 7.5737 33.2435 7.16507 32.777 7.01636L32.3768 2.56194C32.2959 1.66077 31.5525 0.981201 30.6475 0.981201H29.3523C28.4473 0.981201 27.704 1.66077 27.623 2.56194L27.2229 7.01636C26.7563 7.16507 26.399 7.57358 26.3343 8.08077L25.7952 12.2985C25.135 12.4082 24.6302 12.9831 24.6302 13.6739V15.3371C22.9783 15.3371 21.8811 16.6048 21.8811 18.0032V22.5303C21.8811 23.3767 22.5697 24.0653 23.416 24.0653H23.6704C21.8673 25.5207 20.7119 27.7482 20.7119 30.2406V56.4048C20.7119 57.8463 21.8847 59.019 23.3262 59.019H36.6734C38.115 59.019 39.2878 57.8463 39.2878 56.4048V40.1277C39.2878 39.6423 38.8944 39.2488 38.4089 39.2488C37.9234 39.2488 37.53 39.6423 37.53 40.1277V50.7242H22.4698V32.4744H37.5301V36.0262C37.5301 36.5116 37.9235 36.9051 38.409 36.9051C38.8945 36.9051 39.2879 36.5116 39.2879 36.0262V30.2408C39.2879 27.7483 38.1325 25.5208 36.3294 24.0654ZM28.0256 8.71358H31.9742L32.4301 12.2796H27.5697L28.0256 8.71358ZM29.3722 2.73901H30.6279L31.0067 6.95589H28.9932L29.3722 2.73901ZM26.3881 14.0374H33.6119V15.3371H26.3881V14.0374ZM23.639 18.0033C23.639 17.5025 24.0466 17.0951 24.5473 17.0951H35.4527C35.9534 17.0951 36.361 17.5025 36.361 18.0033V22.3076H34.3075V19.9544C34.3075 19.4691 33.9141 19.0755 33.4286 19.0755C32.9431 19.0755 32.5497 19.4691 32.5497 19.9544V22.3076H30.8789V19.9544C30.8789 19.4691 30.4855 19.0755 30 19.0755C29.5145 19.0755 29.1211 19.4691 29.1211 19.9544V22.3076H27.4503V19.9544C27.4503 19.4691 27.0569 19.0755 26.5714 19.0755C26.0859 19.0755 25.6925 19.4691 25.6925 19.9544V22.3076H23.639V18.0033ZM37.5301 52.4821V56.4048C37.5301 56.8771 37.1459 57.2612 36.6736 57.2612H23.3264C22.8541 57.2612 22.4698 56.8771 22.4698 56.4048V52.4821H37.5301ZM37.5301 30.7166H22.4698V30.2407C22.4698 26.8356 25.2402 24.0654 28.6452 24.0654H31.3546C34.7598 24.0654 37.53 26.8357 37.53 30.2407V30.7166H37.5301Z" fill="black"/>
<path d="M57.0415 24.0662H57.2959C58.1423 24.0662 58.8309 23.3778 58.8309 22.5313V18.0041C58.8309 16.6119 57.7423 15.3381 56.0818 15.3381V13.6749C56.0818 12.9842 55.5769 12.4092 54.9169 12.2996L54.3777 8.08151C54.3127 7.57444 53.9554 7.16604 53.4891 7.01733L53.0889 2.56292C53.0081 1.66175 52.2646 0.982178 51.3598 0.982178H50.0644C49.1595 0.982178 48.4162 1.66175 48.3352 2.56292L47.935 7.01733C47.4685 7.16604 47.1112 7.57456 47.0465 8.08175L46.5073 12.2996C45.8472 12.4092 45.3424 12.9842 45.3424 13.6749V15.3381C43.6905 15.3381 42.5933 16.6057 42.5933 18.0041V22.5313C42.5933 23.3776 43.2818 24.0662 44.1283 24.0662H44.3826C42.5794 25.5217 41.4241 27.7492 41.4241 30.2416V56.4057C41.4241 57.8472 42.5969 59.0199 44.0384 59.0199H57.3856C58.8271 59.0199 59.9999 57.8472 59.9999 56.4057V30.2416C60 27.7492 58.8448 25.5217 57.0415 24.0662ZM48.7379 8.71444H52.6866L53.1425 12.2805H48.282L48.7379 8.71444ZM50.0843 2.73987H51.34L51.7189 6.95675H49.7054L50.0843 2.73987ZM47.1003 14.0383H54.3241V15.338H47.1003V14.0383ZM44.3512 18.0041C44.3512 17.5034 44.7588 17.0959 45.2595 17.0959H56.1649C56.6656 17.0959 57.0732 17.5034 57.0732 18.0041V22.3084H55.0198V19.9553C55.0198 19.4699 54.6264 19.0764 54.1409 19.0764C53.6554 19.0764 53.262 19.4699 53.262 19.9553V22.3084H51.5911V19.9553C51.5911 19.4699 51.1977 19.0764 50.7122 19.0764C50.2267 19.0764 49.8333 19.4699 49.8333 19.9553V22.3084H48.1626V19.9553C48.1626 19.4699 47.7692 19.0764 47.2837 19.0764C46.7982 19.0764 46.4048 19.4699 46.4048 19.9553V22.3084H44.3513V18.0041H44.3512ZM49.3574 24.0662H52.0669C55.472 24.0662 58.2422 26.8366 58.2422 30.2416V30.7175H51.8163C51.3308 30.7175 50.9374 31.111 50.9374 31.5964C50.9374 32.0817 51.3308 32.4753 51.8163 32.4753H58.2422V50.7251H43.182V32.4753H47.7147C48.2002 32.4753 48.5936 32.0817 48.5936 31.5964C48.5936 31.111 48.2002 30.7175 47.7147 30.7175H43.182V30.2416C43.182 26.8366 45.9523 24.0662 49.3574 24.0662ZM57.3857 57.2621H44.0385C43.5663 57.2621 43.182 56.8779 43.182 56.4057V52.4829H58.2422V56.4057C58.2422 56.8779 57.8581 57.2621 57.3857 57.2621Z" fill="black"/>
<path d="M14.2697 43.0696C14.2697 41.4978 13.0588 39.3605 12.337 38.2262C10.3776 35.1472 9.55731 35.1472 9.28778 35.1472C9.01825 35.1472 8.19794 35.1472 6.23845 38.2262C5.51669 39.3603 4.30591 41.4977 4.30591 43.0696C4.30591 45.8165 6.54067 48.0514 9.28778 48.0514C12.0349 48.0514 14.2697 45.8165 14.2697 43.0696ZM6.06372 43.0696C6.06372 41.4851 8.30681 38.0694 9.28778 37.0791C10.2688 38.0694 12.5118 41.4851 12.5118 43.0696C12.5118 44.8473 11.0655 46.2936 9.28778 46.2936C7.51005 46.2936 6.06372 44.8473 6.06372 43.0696Z" fill="black"/>
<path d="M30.0002 35.1472C29.7307 35.1472 28.9103 35.1472 26.9508 38.2262C26.2291 39.3603 25.0183 41.4977 25.0183 43.0696C25.0183 45.8165 27.2531 48.0514 30.0002 48.0514C32.7473 48.0514 34.9821 45.8165 34.9821 43.0696C34.9821 41.4978 33.7713 39.3605 33.0495 38.2262C31.09 35.1472 30.2697 35.1472 30.0002 35.1472ZM33.2242 43.0696C33.2242 44.8473 31.7779 46.2936 30.0002 46.2936C28.2225 46.2936 26.7761 44.8473 26.7761 43.0696C26.7761 41.4851 29.0192 38.0694 30.0002 37.0791C30.9812 38.0693 33.2242 41.4849 33.2242 43.0696Z" fill="black"/>
<path d="M45.7302 43.0696C45.7302 45.8165 47.965 48.0514 50.7121 48.0514C53.4592 48.0514 55.694 45.8165 55.694 43.0696C55.694 41.4978 54.4832 39.3605 53.7614 38.2262C51.8019 35.1472 50.9816 35.1472 50.7121 35.1472C50.4426 35.1472 49.6223 35.1472 47.6629 38.2262C46.9411 39.3605 45.7302 41.4978 45.7302 43.0696ZM50.7121 37.0791C51.6931 38.0694 53.9362 41.4851 53.9362 43.0696C53.9362 44.8473 52.4898 46.2936 50.7121 46.2936C48.9344 46.2936 47.488 44.8473 47.488 43.0696C47.488 41.4851 49.7311 38.0694 50.7121 37.0791Z" fill="black"/>
</svg>
