<svg width="90" height="68" viewBox="0 0 90 68" fill="none" xmlns="http://www.w3.org/2000/svg">
<path d="M36.9283 17.6C38.6617 18.4667 39.9783 19.6 40.8783 21C41.8117 22.4 42.2783 24.0167 42.2783 25.85C42.2783 28.0167 41.6617 29.9167 40.4283 31.55C39.195 33.15 37.4617 34.4 35.2283 35.3C32.995 36.1667 30.4117 36.6 27.4783 36.6C24.545 36.6 21.9617 36.1667 19.7283 35.3C17.5283 34.4 15.8117 33.15 14.5783 31.55C13.3783 29.9167 12.7783 28.0167 12.7783 25.85C12.7783 24.0167 13.2283 22.4 14.1283 21C15.0617 19.6 16.3783 18.4667 18.0783 17.6C16.7783 16.8 15.7783 15.8 15.0783 14.6C14.3783 13.3667 14.0283 11.9667 14.0283 10.4C14.0283 8.36667 14.595 6.6 15.7283 5.1C16.8617 3.6 18.445 2.45 20.4783 1.65C22.5117 0.816666 24.845 0.399999 27.4783 0.399999C30.145 0.399999 32.495 0.816666 34.5283 1.65C36.595 2.45 38.195 3.6 39.3283 5.1C40.4617 6.6 41.0283 8.36667 41.0283 10.4C41.0283 11.9667 40.6783 13.3667 39.9783 14.6C39.2783 15.8 38.2617 16.8 36.9283 17.6ZM27.4783 6.35C25.845 6.35 24.5283 6.75 23.5283 7.55C22.5617 8.31667 22.0783 9.38333 22.0783 10.75C22.0783 12.0833 22.5617 13.1333 23.5283 13.9C24.495 14.6667 25.8117 15.05 27.4783 15.05C29.145 15.05 30.4783 14.6667 31.4783 13.9C32.4783 13.1333 32.9783 12.0833 32.9783 10.75C32.9783 9.38333 32.4783 8.31667 31.4783 7.55C30.4783 6.75 29.145 6.35 27.4783 6.35ZM27.4783 30.65C29.5117 30.65 31.1117 30.2 32.2783 29.3C33.4783 28.3667 34.0783 27.1333 34.0783 25.6C34.0783 24.0667 33.4783 22.85 32.2783 21.95C31.1117 21.05 29.5117 20.6 27.4783 20.6C25.4783 20.6 23.895 21.05 22.7283 21.95C21.5617 22.85 20.9783 24.0667 20.9783 25.6C20.9783 27.1667 21.5617 28.4 22.7283 29.3C23.895 30.2 25.4783 30.65 27.4783 30.65ZM60.9861 36.6C58.0861 36.6 55.5028 35.8833 53.2361 34.45C50.9695 33.0167 49.1861 30.95 47.8861 28.25C46.6195 25.5167 45.9861 22.2667 45.9861 18.5C45.9861 14.7333 46.6195 11.5 47.8861 8.8C49.1861 6.06666 50.9695 3.98333 53.2361 2.55C55.5028 1.11667 58.0861 0.399999 60.9861 0.399999C63.8861 0.399999 66.4695 1.11667 68.7361 2.55C71.0028 3.98333 72.7695 6.06666 74.0361 8.8C75.3361 11.5 75.9861 14.7333 75.9861 18.5C75.9861 22.2667 75.3361 25.5167 74.0361 28.25C72.7695 30.95 71.0028 33.0167 68.7361 34.45C66.4695 35.8833 63.8861 36.6 60.9861 36.6ZM60.9861 29.75C63.1195 29.75 64.7861 28.8333 65.9861 27C67.2195 25.1667 67.8361 22.3333 67.8361 18.5C67.8361 14.6667 67.2195 11.8333 65.9861 10C64.7861 8.16666 63.1195 7.25 60.9861 7.25C58.8861 7.25 57.2195 8.16666 55.9861 10C54.7861 11.8333 54.1861 14.6667 54.1861 18.5C54.1861 22.3333 54.7861 25.1667 55.9861 27C57.2195 28.8333 58.8861 29.75 60.9861 29.75ZM7.81345 50.988C8.91345 50.988 9.91079 51.2447 10.8055 51.758C11.7148 52.2567 12.4261 52.968 12.9395 53.892C13.4528 54.8013 13.7095 55.8647 13.7095 57.082C13.7095 58.2993 13.4528 59.37 12.9395 60.294C12.4261 61.2033 11.7148 61.9147 10.8055 62.428C9.91079 62.9267 8.91345 63.176 7.81345 63.176C6.30279 63.176 5.11479 62.6993 4.24945 61.746V67.268H0.817453V51.164H4.09545V52.528C4.94612 51.5013 6.18545 50.988 7.81345 50.988ZM7.21945 60.36C8.09945 60.36 8.81812 60.0667 9.37545 59.48C9.94745 58.8787 10.2335 58.0793 10.2335 57.082C10.2335 56.0847 9.94745 55.2927 9.37545 54.706C8.81812 54.1047 8.09945 53.804 7.21945 53.804C6.33945 53.804 5.61345 54.1047 5.04145 54.706C4.48412 55.2927 4.20545 56.0847 4.20545 57.082C4.20545 58.0793 4.48412 58.8787 5.04145 59.48C5.61345 60.0667 6.33945 60.36 7.21945 60.36ZM27.6506 51.164L22.3046 63.726C21.7619 65.09 21.0872 66.0507 20.2806 66.608C19.4886 67.1653 18.5279 67.444 17.3986 67.444C16.7826 67.444 16.1739 67.3487 15.5726 67.158C14.9712 66.9673 14.4799 66.7033 14.0986 66.366L15.3526 63.924C15.6166 64.1587 15.9172 64.342 16.2546 64.474C16.6066 64.606 16.9512 64.672 17.2886 64.672C17.7579 64.672 18.1392 64.5547 18.4326 64.32C18.7259 64.1 18.9899 63.726 19.2246 63.198L19.2686 63.088L14.1426 51.164H17.6846L21.0066 59.194L24.3506 51.164H27.6506ZM36.0623 51.978C37.1916 51.978 38.1816 52.2127 39.0323 52.682C39.883 53.1367 40.5356 53.782 40.9903 54.618C41.4596 55.454 41.6943 56.422 41.6943 57.522C41.6943 58.6513 41.4156 59.656 40.8583 60.536C40.3156 61.4013 39.553 62.076 38.5703 62.56C37.5876 63.0293 36.473 63.264 35.2263 63.264C33.1583 63.264 31.5303 62.604 30.3423 61.284C29.169 59.9493 28.5823 57.9987 28.5823 55.432C28.5823 53.056 29.0956 51.164 30.1223 49.756C31.1636 48.3333 32.755 47.402 34.8963 46.962L40.5283 45.84L40.9903 48.788L36.0183 49.778C34.669 50.042 33.6643 50.482 33.0043 51.098C32.359 51.714 31.9776 52.5867 31.8603 53.716C32.3736 53.1587 32.9896 52.7333 33.7083 52.44C34.427 52.132 35.2116 51.978 36.0623 51.978ZM35.2483 60.602C36.1283 60.602 36.8323 60.316 37.3603 59.744C37.903 59.172 38.1743 58.446 38.1743 57.566C38.1743 56.6713 37.903 55.96 37.3603 55.432C36.8323 54.904 36.1283 54.64 35.2483 54.64C34.3536 54.64 33.635 54.904 33.0923 55.432C32.5496 55.96 32.2783 56.6713 32.2783 57.566C32.2783 58.4607 32.557 59.194 33.1143 59.766C33.6716 60.3233 34.383 60.602 35.2483 60.602ZM48.907 44.476H51.965L44.705 65.2H41.647L48.907 44.476ZM61.8683 51.164V63H58.4363V58.6C57.439 59.0987 56.339 59.348 55.1363 59.348C53.5376 59.348 52.3276 58.9887 51.5063 58.27C50.6996 57.5367 50.2963 56.4073 50.2963 54.882V51.164H53.7283V54.662C53.7283 55.3807 53.9116 55.9013 54.2783 56.224C54.6596 56.5467 55.2023 56.708 55.9063 56.708C56.801 56.708 57.6443 56.5173 58.4363 56.136V51.164H61.8683ZM69.7617 50.988C71.595 50.988 73.003 51.428 73.9857 52.308C74.9683 53.1733 75.4597 54.486 75.4597 56.246V63H72.2477V61.526C71.6023 62.626 70.3997 63.176 68.6397 63.176C67.7303 63.176 66.9383 63.022 66.2637 62.714C65.6037 62.406 65.0977 61.9807 64.7457 61.438C64.3937 60.8953 64.2177 60.2793 64.2177 59.59C64.2177 58.49 64.6283 57.6247 65.4497 56.994C66.2857 56.3633 67.569 56.048 69.2997 56.048H72.0277C72.0277 55.3 71.8003 54.728 71.3457 54.332C70.891 53.9213 70.209 53.716 69.2997 53.716C68.669 53.716 68.0457 53.8187 67.4297 54.024C66.8283 54.2147 66.315 54.4787 65.8897 54.816L64.6577 52.418C65.303 51.9633 66.073 51.6113 66.9677 51.362C67.877 51.1127 68.8083 50.988 69.7617 50.988ZM69.4977 60.866C70.0843 60.866 70.605 60.734 71.0597 60.47C71.5143 60.1913 71.837 59.788 72.0277 59.26V58.05H69.6737C68.2657 58.05 67.5617 58.512 67.5617 59.436C67.5617 59.876 67.7303 60.228 68.0677 60.492C68.4197 60.7413 68.8963 60.866 69.4977 60.866ZM84.073 63.176C82.8117 63.176 81.675 62.9193 80.663 62.406C79.6657 61.878 78.881 61.152 78.309 60.228C77.7517 59.304 77.473 58.2553 77.473 57.082C77.473 55.9087 77.7517 54.86 78.309 53.936C78.881 53.012 79.6657 52.2933 80.663 51.78C81.675 51.252 82.8117 50.988 84.073 50.988C85.3197 50.988 86.405 51.252 87.329 51.78C88.2677 52.2933 88.9497 53.034 89.375 54.002L86.713 55.432C86.097 54.3467 85.2097 53.804 84.051 53.804C83.1563 53.804 82.4157 54.0973 81.829 54.684C81.2423 55.2707 80.949 56.07 80.949 57.082C80.949 58.094 81.2423 58.8933 81.829 59.48C82.4157 60.0667 83.1563 60.36 84.051 60.36C85.2243 60.36 86.1117 59.8173 86.713 58.732L89.375 60.184C88.9497 61.1227 88.2677 61.856 87.329 62.384C86.405 62.912 85.3197 63.176 84.073 63.176Z" fill="black"/>
</svg>
