<svg width="61" height="60" viewBox="0 0 61 60" fill="none" xmlns="http://www.w3.org/2000/svg">
<path d="M59.4201 46.1993L55.6915 39.7731C55.4475 39.3526 54.9073 39.2087 54.485 39.4514C54.0626 39.6941 53.9179 40.2316 54.1617 40.652L57.8903 47.0782C58.9032 48.8241 58.2999 51.0646 56.5455 52.0725L56.1983 52.2719C54.4437 53.28 52.1922 52.6796 51.1793 50.9338L42.9285 36.7135C42.1331 35.3425 40.6508 34.4909 39.0599 34.4909H20.5153C18.4964 34.4909 16.6151 33.4101 15.6057 31.6704L2.39212 8.89644C1.41054 7.20462 1.99183 5.04488 3.69237 4.06802L4.25082 3.74716C5.95077 2.7703 8.12144 3.34885 9.10314 5.0409C10.5669 7.56368 13.4628 12.5548 16.0041 16.9349H14.0182C12.3756 16.9349 11.0392 18.2648 11.0392 19.8993C11.0392 21.5338 12.3756 22.8636 14.0182 22.8636H19.4439L20.4267 24.5573C21.2221 25.9283 22.7044 26.7799 24.2953 26.7799H32.3311L36.3642 30.7931C37.5283 31.9514 39.4126 31.9517 40.5772 30.7931C41.6804 29.6952 41.7357 27.9433 40.7429 26.7799H42.8399C44.8589 26.7799 46.7401 27.8607 47.7495 29.6004L52.1008 37.1C52.2644 37.3819 52.5613 37.5395 52.8666 37.5395C53.5385 37.5395 53.9726 36.8104 53.6306 36.2211L49.2793 28.7215C47.9552 26.4395 45.4879 25.0221 42.8398 25.0221H38.9904L33.0392 19.1002C31.636 17.7039 29.7705 16.9349 27.7861 16.9349H25.2544C24.7666 16.9349 24.3712 17.3284 24.3712 17.8138C24.3712 18.2992 24.7666 18.6927 25.2544 18.6927H27.7861C29.2986 18.6927 30.7206 19.2788 31.7902 20.3431L39.328 27.8438C39.8008 28.3142 39.8008 29.0796 39.328 29.5501C38.8542 30.0216 38.0873 30.0218 37.6131 29.5501L30.0754 22.0495C29.464 21.441 28.6509 21.1058 27.786 21.1058C27.7727 21.1058 14.8035 21.1058 14.0181 21.1058C13.3495 21.1058 12.8056 20.5645 12.8056 19.8993C12.8056 19.234 13.3495 18.6927 14.0181 18.6927C24.0412 18.6927 8.0231 18.6927 21.1325 18.6927C21.6203 18.6927 22.0157 18.2992 22.0157 17.8138C22.0157 17.3284 21.6203 16.9349 21.1325 16.9349H18.0437L16.8892 14.9451C19.4303 14.8875 21.0384 12.1133 19.744 9.88268L14.9258 1.57852C14.0497 0.0683419 12.1119 -0.448566 10.5942 0.42365L10.2126 0.642905C9.54017 1.02927 9.06369 1.62528 8.81826 2.30062C7.2091 1.31661 5.12523 1.21512 3.36757 2.22492L2.80913 2.54577C0.263494 4.00825 -0.607622 7.24189 0.862334 9.77533L14.0759 32.5492C15.4 34.8311 17.8674 36.2486 20.5154 36.2486H27.4615V41.8105C26.8278 41.9048 26.3262 42.4299 26.2823 43.0833L25.6315 52.7625H15.2174C14.7296 52.7625 14.3342 53.156 14.3342 53.6414V59.1209C14.3342 59.6063 14.7296 59.9998 15.2174 59.9998H19.3954C19.8832 59.9998 20.2787 59.6063 20.2787 59.1209V58.6875H33.217C33.7048 58.6875 34.1003 58.294 34.1003 57.8086C34.1003 57.3232 33.7048 56.9297 33.217 56.9297H20.2784V54.5201H40.0204V56.9297H37.3387C36.8509 56.9297 36.4555 57.3232 36.4555 57.8086C36.4555 58.294 36.8509 58.6875 37.3387 58.6875H40.0205V59.1209C40.0205 59.6063 40.416 59.9998 40.9038 59.9998H45.0817C45.5695 59.9998 45.965 59.6063 45.965 59.1209V53.6414C45.965 53.156 45.5695 52.7625 45.0817 52.7625H34.6674L34.0167 43.0833C33.9726 42.4301 33.4712 41.9049 32.8375 41.8106V36.2487H39.0599C40.0217 36.2487 40.9178 36.7636 41.3986 37.5924L49.6494 51.8127C51.1422 54.3855 54.4717 55.2936 57.0814 53.7943L57.4286 53.5948C60.0267 52.1021 60.9201 48.7846 59.4201 46.1993ZM28.8264 23.2924L30.5646 25.0221H24.2953C23.3335 25.0221 22.4374 24.5071 21.9566 23.6784L21.4839 22.8636H27.7863C28.1791 22.8636 28.5486 23.0158 28.8264 23.2924ZM11.0962 2.16515C11.4947 1.93617 11.7363 1.75805 12.1778 1.75805C12.6581 1.75805 13.1329 2.0032 13.3964 2.45741L18.2146 10.7616C18.6636 11.5355 18.3976 12.5233 17.6199 12.9702C16.8456 13.4153 15.852 13.1515 15.4027 12.3824C14.659 11.1008 11.142 5.03938 10.582 4.07435C10.1948 3.40697 10.4255 2.55046 11.0962 2.16515ZM41.7869 54.5203H44.1984V58.242H41.7869V54.5203ZM18.5119 58.242H16.1004V54.5203H18.5119V58.242ZM27.4291 52.3565L28.021 43.5533H32.2777L32.8696 52.3565H27.4291ZM31.071 41.7955H29.2278V36.2487H31.071V41.7955Z" fill="black"/>
</svg>
