<svg width="24" height="14" viewBox="0 0 24 14" fill="none" xmlns="http://www.w3.org/2000/svg">
<path d="M23.8728 12.5198C23.8437 12.4572 23.8166 12.4052 23.7915 12.3636C23.3751 11.6136 22.5793 10.6931 21.4047 9.60181L21.3799 9.57682L21.3675 9.56456L21.3549 9.552H21.3423C20.8093 9.04382 20.4717 8.70213 20.3303 8.5272C20.0716 8.19395 20.0137 7.85664 20.1551 7.51487C20.2549 7.25664 20.6301 6.7113 21.2797 5.87811C21.6214 5.43654 21.892 5.08264 22.0918 4.81602C23.5331 2.89989 24.158 1.67547 23.9663 1.14225L23.8919 1.01765C23.8418 0.942633 23.7127 0.874006 23.5047 0.811419C23.2962 0.748964 23.0297 0.738635 22.7047 0.780258L19.106 0.805117C19.0477 0.784459 18.9645 0.786385 18.856 0.811419C18.7477 0.836454 18.6935 0.849016 18.6935 0.849016L18.6309 0.880309L18.5812 0.917904C18.5395 0.942764 18.4937 0.986488 18.4436 1.04899C18.3939 1.11127 18.3523 1.18436 18.319 1.26765C17.9272 2.27565 17.4817 3.21283 16.9818 4.07915C16.6735 4.59574 16.3904 5.04343 16.1319 5.42249C15.8737 5.80143 15.6571 6.08062 15.4823 6.25958C15.3073 6.43872 15.1493 6.58223 15.0074 6.69064C14.8657 6.7991 14.7575 6.84492 14.6827 6.82816C14.6076 6.8114 14.5369 6.79477 14.47 6.77813C14.3534 6.70312 14.2597 6.6011 14.189 6.47198C14.118 6.34287 14.0702 6.18036 14.0452 5.98459C14.0204 5.78869 14.0057 5.62019 14.0015 5.47852C13.9976 5.33702 13.9994 5.13687 14.0078 4.87865C14.0165 4.62029 14.0204 4.44548 14.0204 4.35384C14.0204 4.03722 14.0265 3.69361 14.0389 3.3229C14.0515 2.9522 14.0617 2.65848 14.0703 2.44209C14.0788 2.22549 14.0827 1.99632 14.0827 1.75473C14.0827 1.51314 14.068 1.32367 14.0389 1.18615C14.0102 1.04881 13.9661 0.915497 13.9081 0.786253C13.8496 0.657141 13.7641 0.557264 13.6519 0.486362C13.5395 0.415547 13.3997 0.35935 13.2333 0.317596C12.7917 0.217676 12.2295 0.163624 11.5462 0.15522C9.99683 0.138589 9.00126 0.23864 8.55974 0.455243C8.3848 0.54676 8.22649 0.671802 8.08495 0.829976C7.93496 1.01332 7.91404 1.11337 8.02232 1.12982C8.52223 1.20471 8.87613 1.38385 9.08442 1.66706L9.15948 1.81714C9.21786 1.92542 9.27616 2.11712 9.3345 2.39198C9.39275 2.66684 9.43035 2.97088 9.44689 3.30395C9.48847 3.91218 9.48847 4.43284 9.44689 4.86595C9.40518 5.29925 9.36579 5.63656 9.3282 5.87815C9.2906 6.11975 9.23441 6.31552 9.15948 6.46542C9.08442 6.61537 9.03448 6.70701 9.00944 6.74028C8.98445 6.77354 8.96362 6.7945 8.94708 6.80273C8.8388 6.84422 8.72618 6.86536 8.60963 6.86536C8.4929 6.86536 8.35136 6.80698 8.18478 6.69029C8.01825 6.57361 7.84542 6.41334 7.66628 6.20921C7.48714 6.00503 7.28511 5.71972 7.0601 5.35321C6.83527 4.98671 6.60199 4.55354 6.3604 4.05373L6.16052 3.69125C6.03556 3.45806 5.86487 3.11851 5.64827 2.67292C5.43153 2.22715 5.23996 1.79596 5.07343 1.37943C5.00686 1.20449 4.90685 1.07131 4.77358 0.97966L4.71104 0.942064C4.66946 0.908801 4.60272 0.873481 4.51116 0.835841C4.41946 0.798245 4.32379 0.771285 4.22374 0.754697L0.799886 0.779557C0.450013 0.779557 0.21262 0.858819 0.0876216 1.01712L0.0375959 1.09201C0.0126049 1.13372 0 1.20033 0 1.29203C0 1.38367 0.024991 1.49615 0.0750167 1.62934C0.574836 2.80404 1.11838 3.93695 1.70564 5.02824C2.29291 6.11953 2.80323 6.99859 3.23631 7.66464C3.66947 8.33116 4.11099 8.96023 4.56087 9.55152C5.01076 10.143 5.30855 10.5221 5.45425 10.6886C5.60012 10.8555 5.7147 10.9802 5.79799 11.0635L6.11045 11.3633C6.31037 11.5633 6.60396 11.8028 6.99135 12.0818C7.37882 12.361 7.80778 12.6359 8.27845 12.9068C8.7492 13.1774 9.29686 13.3981 9.92172 13.5689C10.5465 13.7398 11.1546 13.8083 11.7461 13.7753H13.1832C13.4746 13.7501 13.6954 13.6584 13.8455 13.5003L13.8952 13.4376C13.9286 13.3879 13.9599 13.3107 13.9888 13.2067C14.0181 13.1026 14.0326 12.9879 14.0326 12.8631C14.0241 12.505 14.0513 12.1822 14.1136 11.8948C14.1759 11.6075 14.2469 11.3909 14.3263 11.245C14.4057 11.0993 14.4952 10.9763 14.5949 10.8766C14.6947 10.7767 14.7659 10.7162 14.8077 10.6953C14.8491 10.6744 14.8823 10.6601 14.9073 10.6516C15.1072 10.585 15.3425 10.6495 15.6135 10.8454C15.8843 11.0412 16.1383 11.2829 16.3758 11.5702C16.6133 11.8578 16.8985 12.1804 17.2317 12.5385C17.5651 12.8968 17.8566 13.1631 18.1064 13.3383L18.3562 13.4883C18.523 13.5883 18.7396 13.68 19.0063 13.7633C19.2724 13.8465 19.5056 13.8673 19.7058 13.8257L22.9046 13.7758C23.221 13.7758 23.4672 13.7234 23.6419 13.6195C23.8168 13.5154 23.9208 13.4007 23.9543 13.2759C23.9877 13.151 23.9895 13.0092 23.9607 12.8508C23.931 12.6928 23.9018 12.5823 23.8728 12.5198Z" fill="white"/>
</svg>
