<svg width="60" height="46" viewBox="0 0 60 46" fill="none" xmlns="http://www.w3.org/2000/svg">
<path d="M46.0357 33.4245C46.4935 33.2632 46.7338 32.7611 46.5723 32.3034C46.4108 31.8456 45.9084 31.6056 45.4511 31.7669C42.9409 32.652 40.2906 30.7841 40.2906 28.1142C40.2906 25.9791 42.0275 24.2421 44.1625 24.2421C46.8245 24.2421 48.7033 26.885 47.8154 29.4027C47.6538 29.8604 47.8939 30.3624 48.3517 30.5239C48.8097 30.6852 49.3114 30.4453 49.4729 29.9875C50.7613 26.3379 48.0439 22.4843 44.1625 22.4843C41.0582 22.4843 38.5327 25.0098 38.5327 28.1142C38.5327 31.9844 42.3752 34.7158 46.0357 33.4245Z" fill="black"/>
<path d="M57.6266 0.567871H2.37352C1.06477 0.567871 0 1.63264 0 2.94139V39.2344C0 40.5431 1.06477 41.6079 2.37352 41.6079H39.2523V44.5521C39.2523 45.2276 39.984 45.6479 40.5663 45.3157L44.2113 43.2387L47.7497 45.3105C48.3347 45.6527 49.0727 45.2307 49.0727 44.5521V41.6079H57.6265C58.9352 41.6079 60 40.5431 60 39.2344V2.94139C60.0001 1.63264 58.9354 0.567871 57.6266 0.567871ZM37.222 26.7981C37.1204 26.4159 37.0153 26.0208 37.0827 25.8136C37.1568 25.5851 37.4832 25.322 37.7988 25.0676C38.6799 24.3574 38.892 24.0719 39.3056 22.9949C39.4498 22.6189 39.5993 22.2301 39.7882 22.0925C39.9724 21.9585 40.3859 21.9361 40.7858 21.9143C41.9696 21.8501 42.3003 21.7244 43.2151 21.1268C43.5573 20.9032 43.9112 20.672 44.1624 20.672C44.4138 20.672 44.7677 20.9032 45.11 21.1268C46.0346 21.731 46.3673 21.8506 47.5392 21.9143C47.939 21.9361 48.3525 21.9585 48.5368 22.0925C48.7258 22.2301 48.8751 22.6189 49.0195 22.995C49.4321 24.0703 49.6439 24.3566 50.5262 25.0677C50.8418 25.3221 51.1683 25.5853 51.2423 25.8136C51.3096 26.0209 51.2046 26.416 51.103 26.7982C50.8024 27.9286 50.8031 28.3022 51.103 29.4301C51.2046 29.8122 51.3097 30.2074 51.2422 30.4148C51.168 30.6432 50.8417 30.9063 50.5261 31.1608C49.6467 31.8699 49.4338 32.1545 49.0194 33.2335C48.6839 34.1076 48.6022 34.2008 48.1057 34.269C48.0435 34.2752 48.0044 34.2888 47.5393 34.3141C46.3629 34.3779 46.0316 34.4995 45.1101 35.1016C44.7678 35.3252 44.4139 35.5564 44.1625 35.5564C43.9113 35.5564 43.5574 35.3252 43.2152 35.1016C42.2982 34.5026 41.9675 34.3781 40.7859 34.3141C39.6975 34.2548 39.6873 34.2275 39.3057 33.2335C38.8912 32.1541 38.6777 31.8692 37.7988 31.1607C37.4832 30.9063 37.1568 30.6431 37.0828 30.4148C37.0154 30.2075 37.1205 29.8124 37.2221 29.4303C37.5225 28.2998 37.5219 27.9261 37.222 26.7981ZM47.315 43.0189L44.6614 41.4653C44.3904 41.3066 44.0552 41.3045 43.7822 41.4601L41.0101 43.0397V36.0888C41.5638 36.1311 41.6732 36.1939 42.2537 36.573C42.759 36.9031 43.3879 37.3141 44.1624 37.3141C44.937 37.3141 45.5661 36.9033 46.0714 36.573C46.6515 36.1939 46.7641 36.1308 47.3149 36.0888L47.315 43.0189ZM58.2423 39.2344C58.2423 39.5738 57.9662 39.8501 57.6266 39.8501H49.0728V38.0922H51.8679C52.3534 38.0922 52.7468 37.6987 52.7468 37.2133C52.7468 35.6369 54.0292 34.3544 55.6057 34.3544C56.0912 34.3544 56.4846 33.9609 56.4846 33.4755V8.7001C56.4846 8.21471 56.0912 7.82119 55.6057 7.82119C54.0293 7.82119 52.7468 6.53869 52.7468 4.96229C52.7468 4.47689 52.3534 4.08338 51.8679 4.08338H8.13236C7.64685 4.08338 7.25345 4.47689 7.25345 4.96229C7.25345 6.53869 5.97107 7.82119 4.39454 7.82119C3.90903 7.82119 3.51563 8.21471 3.51563 8.7001V33.4755C3.51563 33.9609 3.90903 34.3544 4.39454 34.3544C5.97095 34.3544 7.25345 35.6369 7.25345 37.2133C7.25345 37.6987 7.64685 38.0922 8.13236 38.0922H24.7404C25.226 38.0922 25.6193 37.6987 25.6193 37.2133C25.6193 36.7279 25.226 36.3344 24.7404 36.3344H8.92736C8.57076 34.4924 7.11552 33.0371 5.27345 32.6806V9.4951C7.11552 9.13861 8.57076 7.68338 8.92736 5.84131H51.0728C51.4294 7.68338 52.8846 9.13861 54.7267 9.4951V32.6806C52.8846 33.0371 51.4294 34.4924 51.0728 36.3344H49.0728V35.8294C49.9892 35.4675 50.3321 34.719 50.6606 33.8635C50.9579 33.0887 50.9894 33.0454 51.6295 32.5292C52.097 32.1524 52.6788 31.6834 52.9145 30.9575C53.1419 30.2569 52.9612 29.5776 52.802 28.9783C52.5825 28.1524 52.5825 28.0758 52.802 27.2498C52.9614 26.6505 53.1419 25.9714 52.9146 25.2706C52.6788 24.5448 52.0971 24.0759 51.6296 23.699C50.9914 23.1845 50.9587 23.1408 50.6606 22.3647C50.4356 21.7788 50.1806 21.1147 49.5712 20.6712C48.9669 20.2312 48.2591 20.1928 47.6347 20.1589C46.7925 20.1132 46.7437 20.0944 46.0715 19.655C45.5661 19.3249 44.9372 18.9139 44.1625 18.9139C43.3881 18.9139 42.759 19.3248 42.2538 19.655C41.5875 20.0901 41.538 20.1129 40.6905 20.1588C40.0661 20.1928 39.3583 20.2311 38.754 20.671C38.1447 21.1145 37.8896 21.7786 37.6646 22.3645C37.3666 23.1412 37.3324 23.1856 36.6956 23.6988C36.2282 24.0757 35.6464 24.5447 35.4106 25.2706C35.1833 25.9712 35.3639 26.6504 35.5232 27.2497C35.7427 28.0755 35.7428 28.1523 35.5232 28.9782C35.3639 29.5775 35.1832 30.2569 35.4106 30.9575C35.6464 31.6833 36.2281 32.1522 36.6955 32.529C37.3325 33.0425 37.3667 33.0874 37.6646 33.8635C37.9979 34.7315 38.341 35.4695 39.2524 35.8294V36.3344H28.842C28.3565 36.3344 27.9631 36.7279 27.9631 37.2133C27.9631 37.6987 28.3565 38.0922 28.842 38.0922H39.2524V39.8501H2.37352C2.03403 39.8501 1.75782 39.5738 1.75782 39.2344V2.94139C1.75782 2.60189 2.03391 2.32568 2.37352 2.32568H57.6266C57.9661 2.32568 58.2423 2.60189 58.2423 2.94139V39.2344Z" fill="black"/>
<path d="M16.9834 14.7585C16.9834 14.2731 16.59 13.8796 16.1044 13.8796H14.3997V10.7239H45.6005V13.8796H20.206C19.7205 13.8796 19.3271 14.2731 19.3271 14.7585C19.3271 15.2439 19.7205 15.6374 20.206 15.6374H46.4794C46.9649 15.6374 47.3583 15.2439 47.3583 14.7585V9.84498C47.3583 9.35959 46.9649 8.96607 46.4794 8.96607H13.5208C13.0353 8.96607 12.6419 9.35959 12.6419 9.84498V14.7585C12.6419 15.2439 13.0353 15.6374 13.5208 15.6374H16.1044C16.5898 15.6374 16.9834 15.2439 16.9834 14.7585Z" fill="black"/>
<path d="M31.7143 25.4051C31.7143 24.9197 31.3209 24.5262 30.8354 24.5262H14.7131C14.2276 24.5262 13.8342 24.9197 13.8342 25.4051C13.8342 25.8905 14.2276 26.284 14.7131 26.284H30.8354C31.3208 26.284 31.7143 25.8905 31.7143 25.4051Z" fill="black"/>
<path d="M14.7131 19.9445C14.2276 19.9445 13.8342 20.3381 13.8342 20.8234C13.8342 21.3088 14.2276 21.7024 14.7131 21.7024H30.8354C31.3209 21.7024 31.7143 21.3088 31.7143 20.8234C31.7143 20.3381 31.3209 19.9445 30.8354 19.9445H14.7131Z" fill="black"/>
<path d="M28.7227 29.987C28.7227 29.5016 28.3293 29.1081 27.8438 29.1081H17.7049C17.2194 29.1081 16.826 29.5016 16.826 29.987C16.826 30.4724 17.2194 30.8659 17.7049 30.8659H27.8438C28.3292 30.8659 28.7227 30.4724 28.7227 29.987Z" fill="black"/>
</svg>
